<?xml version="1.0" standalone="no"?>
<!DOCTYPE svg PUBLIC "-//W3C//DTD SVG 20010904//EN"
 "http://www.w3.org/TR/2001/REC-SVG-20010904/DTD/svg10.dtd">
<svg version="1.0" xmlns="http://www.w3.org/2000/svg"
 width="1024.000000pt" height="1024.000000pt" viewBox="0 0 1024.000000 1024.000000"
 preserveAspectRatio="xMidYMid meet">
<metadata>
Created by potrace 1.14, written by Peter Selinger 2001-2017
</metadata>
<g transform="translate(0.000000,1024.000000) scale(0.100000,-0.100000)"
fill="#000000" stroke="none">
<path d="M2309 10236 c-2 -2 -50 -7 -106 -10 -57 -4 -111 -9 -120 -10 -10 -2
-45 -7 -78 -11 -32 -4 -68 -9 -79 -11 -11 -2 -36 -6 -56 -9 -43 -6 -47 -7
-175 -35 -271 -60 -630 -212 -805 -342 -144 -107 -249 -202 -340 -308 -25 -29
-50 -58 -55 -64 -47 -51 -226 -347 -227 -373 0 -4 -3 -12 -8 -18 -13 -17 -76
-175 -105 -265 -57 -179 -106 -405 -121 -560 -3 -30 -7 -61 -9 -68 -3 -7 -8
-61 -12 -120 -10 -137 -10 -5708 -1 -5822 10 -116 25 -238 37 -308 6 -31 13
-73 16 -92 15 -85 57 -244 94 -355 22 -66 43 -127 45 -135 2 -9 28 -67 58
-130 144 -305 325 -531 571 -713 51 -37 97 -71 102 -75 59 -45 349 -192 378
-192 7 0 17 -4 22 -9 19 -17 296 -101 385 -116 19 -3 52 -10 72 -16 20 -5 56
-12 80 -15 24 -2 54 -7 68 -10 13 -3 49 -8 80 -10 30 -3 61 -7 67 -9 50 -17
558 -20 3033 -20 2471 0 2927 3 3031 20 13 2 51 6 84 10 51 6 176 27 290 50
17 3 71 17 121 30 455 121 859 375 1102 695 9 12 26 34 38 48 42 55 122 190
172 290 50 99 136 321 146 375 2 15 7 31 11 37 3 5 8 18 10 28 1 9 8 35 13 57
6 22 13 51 16 65 2 14 11 59 19 100 17 83 25 133 33 200 3 25 7 56 9 69 17 99
20 562 20 3046 0 2525 -3 2924 -20 3030 -3 17 -7 48 -9 70 -27 279 -134 645
-259 890 -161 315 -410 586 -687 750 -36 21 -77 46 -92 57 -15 10 -32 18 -37
18 -6 0 -34 14 -63 31 -29 17 -55 31 -58 31 -9 1 -34 10 -76 29 -23 10 -55 21
-70 25 -16 4 -33 9 -39 13 -5 3 -12 6 -15 7 -3 0 -44 13 -92 28 -48 15 -95 29
-105 31 -101 21 -223 46 -243 49 -14 3 -45 8 -70 12 -57 9 -60 10 -150 19 -41
4 -88 10 -105 13 -33 6 -5729 14 -5736 8z"/>
</g>
</svg>
